Coordinates
version=1
nRows=8
nColumns=34
inDegrees=yes

Units are S.I. units (second, meters, Newtons, ...)
If the header above contains a line with 'inDegrees', this indicates whether rotational values are in degrees (yes) or radians (no).

endheader
time	pelvis_tilt	pelvis_list	pelvis_rotation	pelvis_tx	pelvis_ty	pelvis_tz	hip_flexion_r	hip_adduction_r	hip_rotation_r	knee_angle_r	ankle_angle_r	subtalar_angle_r	mtp_angle_r	hip_flexion_l	hip_adduction_l	hip_rotation_l	knee_angle_l	ankle_angle_l	subtalar_angle_l	mtp_angle_l	lumbar_extension	lumbar_bending	lumbar_rotation	arm_flex_r	arm_add_r	arm_rot_r	elbow_flex_r	pro_sup_r	arm_flex_l	arm_add_l	arm_rot_l	elbow_flex_l	pro_sup_l
      0.00000000	     -4.18644720	     -2.78581548	      0.98803713	      0.51274097	      0.88125847	     -0.09611455	     10.06272567	      1.93231853	     -6.08124419	      3.42104381	      0.45964286	     -2.12502832	      0.00000000	      4.91638468	      1.55201344	     -4.15284122	      3.85960421	      3.92697559	     -3.38749461	      0.00000000	     -7.72805874	      1.78763350	      3.19572478	     54.99370280	      7.87227644	     62.24968175	    116.37109220	    113.26356300	     65.02436145	      8.76003306	     74.34593228	    113.12062809	     91.83835891
      0.01666670	     -5.04716325	     -2.49046438	      1.39393634	      0.51496349	      0.87916571	     -0.09598654	     10.76526308	      1.54321455	     -5.90219317	      3.06374051	      0.46560011	      0.57371099	      0.00000000	      5.56402056	      2.21643520	     -4.75808251	      3.93889093	      5.13320028	     -2.72156998	      0.00000000	     -6.34297203	      1.03513287	      1.90257497	     58.08651967	      7.59002622	     63.34884477	    118.67158403	    112.63599903	     68.07427729	      6.22871159	     73.22097380	    116.32553957	     92.49265639
      0.03333330	     -5.40116155	     -1.91469699	      0.37196977	      0.51537456	      0.87815338	     -0.09420421	     11.04333899	      1.28737407	     -6.09867770	      2.76643514	      0.78992458	      0.81187120	      0.00000000	      5.98607829	      2.78017154	     -5.96987053	      4.16393683	      5.36393285	     -3.38600505	      0.00000000	     -5.77517840	     -0.03789852	      2.66383754	     58.73427783	      7.24453698	     64.35107992	    119.82383639	    112.50447722	     69.14973812	      4.73987250	     72.66556363	    117.88717320	     92.45354946
      0.05000000	     -5.08465810	     -1.79791927	      0.09076996	      0.51524106	      0.87849632	     -0.09433338	     10.75892211	      1.28474703	     -6.26826941	      2.56770047	      1.00060724	      1.06799982	      0.00000000	      5.63641635	      2.97163947	     -6.08400132	      4.03916402	      5.51602752	     -4.04952177	      0.00000000	     -5.94702166	     -0.23655585	      3.62193157	     59.57054918	      6.80224755	     66.60289097	    119.84819380	    112.33718968	     69.65750892	      5.02015251	     72.84617968	    117.84631338	     92.17120447
      0.06666670	     -4.89576410	     -1.64855779	      0.00004396	      0.51396977	      0.88008590	     -0.09398055	     10.59923025	      1.25778177	     -6.53926292	      2.48820694	      0.96807367	      0.96562029	      0.00000000	      5.70455034	      3.15102309	     -6.12962942	      4.55314865	      5.53145160	     -4.30184561	      0.00000000	     -6.03080455	     -0.41838605	      3.85958245	     59.17229515	      6.57601845	     67.11507606	    119.48900352	    112.28919219	     69.36090545	      5.38190834	     73.06738684	    117.92807727	     92.08078753
      0.08333330	     -5.08990324	     -1.68409318	      0.09793754	      0.51465351	      0.88001973	     -0.09462187	     10.79596239	      1.27633923	     -6.44595734	      2.51287485	      0.69660890	      1.00082556	      0.00000000	      6.29270697	      3.17107414	     -4.63620396	      5.20984361	      4.63684428	     -7.33766384	      0.00000000	     -5.59969406	     -0.25805239	      4.36853862	     59.09835263	      6.24367296	     68.19931308	    118.82246493	    109.65700732	     69.36517470	      6.28469908	     73.66721860	    117.44819545	     88.73557090
      0.10000000	     -5.04315225	     -1.68957811	      0.13829886	      0.51443369	      0.88221807	     -0.09556646	     10.74499045	      1.17828287	     -6.17171359	      2.73599985	      0.57996696	      1.15642022	      0.00000000	      6.76927498	      3.12962098	     -4.49696181	      6.22168125	      4.81483123	     -7.43234022	      0.00000000	     -5.72795483	     -0.17880417	      4.82382139	     59.91249439	      6.43129162	     68.05174988	    118.09931258	    109.44516017	     69.75751514	      6.76095223	     73.75307183	    117.19698763	     88.48871780
      0.11666670	     -4.90990911	     -1.68324172	      0.22405679	      0.51545546	      0.88513134	     -0.09652267	     10.50887228	      1.06151180	     -5.84734528	      2.94397289	      0.33775842	      1.23591182	      0.00000000	      7.11289938	      3.11212459	     -4.28043692	      7.21452341	      4.77924574	     -7.88905482	      0.00000000	     -6.00009102	     -0.22985161	      4.74317990	     60.13930654	      6.54052769	     68.15874279	    116.57104823	    109.11045070	     70.07624347	      6.86934337	     74.31452872	    116.73457310	     88.11048976
